HIERARCHY
ROOT root
{
  OFFSET -77.3165 94.0043 25.5882
  CHANNELS 6 Xposition Yposition Zposition Zrotation Xrotation Yrotation
  JOINT lowerback
  {
    OFFSET 0 0 0
    CHANNELS 6 Xposition Yposition Zposition Zrotation Xrotation Yrotation
    JOINT upperback
    {
      OFFSET -0.0146535 10.7314 1.20016
      CHANNELS 6 Xposition Yposition Zposition Zrotation Xrotation Yrotation
      JOINT thorax
      {
        OFFSET -0.0615349 10.8421 0.200216
        CHANNELS 6 Xposition Yposition Zposition Zrotation Xrotation Yrotation
        JOINT lowerneck
        {
          OFFSET -0.0803938 10.955 -0.362586
          CHANNELS 6 Xposition Yposition Zposition Zrotation Xrotation Yrotation
          JOINT upperneck
          {
            OFFSET 0.744525 13.1821 -0.716092
            CHANNELS 6 Xposition Yposition Zposition Zrotation Xrotation Yrotation
            JOINT head
            {
              OFFSET -0.714609 12.8109 -2.75709
              CHANNELS 6 Xposition Yposition Zposition Zrotation Xrotation Yrotation
              End headSite
              {
                OFFSET -0.301711 13.3161 -0.870562
              }
            }
          }
        }
        JOINT lclavicle
        {
          OFFSET -0.0803938 10.955 -0.362586
          CHANNELS 6 Xposition Yposition Zposition Zrotation Xrotation Yrotation
          JOINT lhumerus
          {
            OFFSET 21.0494 8.71366 -1.80014
            CHANNELS 6 Xposition Yposition Zposition Zrotation Xrotation Yrotation
            JOINT lradius
            {
              OFFSET 0 -27.9395 0
              CHANNELS 6 Xposition Yposition Zposition Zrotation Xrotation Yrotation
              JOINT lwrist
              {
                OFFSET 0 -15.5821 0
                CHANNELS 6 Xposition Yposition Zposition Zrotation Xrotation Yrotation
                JOINT lhand
                {
                  OFFSET 0 -7.79103 0
                  CHANNELS 6 Xposition Yposition Zposition Zrotation Xrotation Yrotation
                  JOINT lfingers
                  {
                    OFFSET 0 -4.76355 0
                    CHANNELS 6 Xposition Yposition Zposition Zrotation Xrotation Yrotation
                    End lfingersSite
                    {
                      OFFSET 0 -3.8405 0
                    }
                  }
                }
                JOINT lthumb
                {
                  OFFSET 0 -7.79103 0
                  CHANNELS 6 Xposition Yposition Zposition Zrotation Xrotation Yrotation
                  End lthumbSite
                  {
                    OFFSET 0 -5.5142 0
                  }
                }
              }
            }
          }
        }
        JOINT rclavicle
        {
          OFFSET -0.0803938 10.955 -0.362586
          CHANNELS 6 Xposition Yposition Zposition Zrotation Xrotation Yrotation
          JOINT rhumerus
          {
            OFFSET -22.6442 7.32563 -0.641706
            CHANNELS 6 Xposition Yposition Zposition Zrotation Xrotation Yrotation
            JOINT rradius
            {
              OFFSET 0 -24.4394 0
              CHANNELS 6 Xposition Yposition Zposition Zrotation Xrotation Yrotation
              JOINT rwrist
              {
                OFFSET 0 -18.0654 0
                CHANNELS 6 Xposition Yposition Zposition Zrotation Xrotation Yrotation
                JOINT rhand
                {
                  OFFSET 0 -9.03275 0
                  CHANNELS 6 Xposition Yposition Zposition Zrotation Xrotation Yrotation
                  JOINT rfingers
                  {
                    OFFSET 0 -5.42111 0
                    CHANNELS 6 Xposition Yposition Zposition Zrotation Xrotation Yrotation
                    End rfingersSite
                    {
                      OFFSET 0 -4.37064 0
                    }
                  }
                }
                JOINT rthumb
                {
                  OFFSET 0 -9.03275 0
                  CHANNELS 6 Xposition Yposition Zposition Zrotation Xrotation Yrotation
                  End rthumbSite
                  {
                    OFFSET 0 -6.27538 0
                  }
                }
              }
            }
          }
        }
      }
    }
  }
  JOINT rfemur
  {
    OFFSET -6.87808 -8.58224 4.63091
    CHANNELS 6 Xposition Yposition Zposition Zrotation Xrotation Yrotation
    JOINT rtibia
    {
      OFFSET 1.05643e-005 -39.9586 0
      CHANNELS 6 Xposition Yposition Zposition Zrotation Xrotation Yrotation
      JOINT rfoot
      {
        OFFSET 0 -32.7363 0
        CHANNELS 6 Xposition Yposition Zposition Zrotation Xrotation Yrotation
        JOINT rtoes
        {
          OFFSET 0 -11.385 -7.56517
          CHANNELS 6 Xposition Yposition Zposition Zrotation Xrotation Yrotation
          End rtoesSite
          {
            OFFSET 0 -6.46114 0
          }
        }
      }
    }
  }
  JOINT lfemur
  {
    OFFSET 6.18079 -8.58223 4.6309
    CHANNELS 6 Xposition Yposition Zposition Zrotation Xrotation Yrotation
    JOINT ltibia
    {
      OFFSET -1.0381e-005 -39.2652 0
      CHANNELS 6 Xposition Yposition Zposition Zrotation Xrotation Yrotation
      JOINT lfoot
      {
        OFFSET -0.00334357 -31.3814 0
        CHANNELS 6 Xposition Yposition Zposition Zrotation Xrotation Yrotation
        JOINT ltoes
        {
          OFFSET 0 -9.94555 -8.16007
          CHANNELS 6 Xposition Yposition Zposition Zrotation Xrotation Yrotation
          End ltoesSite
          {
            OFFSET 0 -5.95839 0
          }
        }
      }
    }
  }
}
MOTION
Frames:	4
Frame Time:	0.00833333
-77.3165 94.0043 25.5882 -8.01502 -2.20371 90.6749 0 0 0 2.6799 -11.0807 -0.96704 -0.0146535 10.7314 1.20016 -1.17879 -3.651 -1.40566 -0.0615349 10.8421 0.200216 -2.89753 2.29825 -0.65254 -0.0803938 10.955 -0.362586 -11.0659 -5.07467 -11.6966 0.744525 13.1821 -0.716092 1.87569 4.52547 40.819 -0.714609 12.8109 -2.75709 153.639 5.9246 117.623 -0.0803938 10.955 -0.362586 -2.38542e-015 0 -2.1419e-014 21.0494 8.71366 -1.80014 -3.44418 8.08301 -161.952 1.08638e-009 -27.9395 6.27219e-010 -0 20.4452 0 6.05876e-010 -15.5821 3.49801e-010 9.23225e-015 -6.65775e-015 -161.594 -1.45919e-025 -7.79103 -3.4981e-010 3.62814 -33.6245 0 -1.65336e-025 -4.76355 -2.13835e-010 0 7.12502 -0 -1.45919e-025 -7.79103 -3.4981e-010 -11.5016 -6.81709 2.60013e-015 -0.0803938 10.955 -0.362586 -2.38542e-015 0 -2.1419e-014 -22.6442 7.32563 -0.641706 10.0742 4.80147 149.978 -9.50233e-010 -24.4394 5.48614e-010 -0 16.8526 0 -7.02403e-010 -18.0654 4.0553e-010 3.23318e-015 -5.90924e-015 147.37 1.69176e-025 -9.03275 -4.05569e-010 2.16611 -36.5277 0 1.88163e-025 -5.42111 -2.43422e-010 0 7.12502 -0 1.69176e-025 -9.03275 -4.05569e-010 17.406 -9.61898 -3.39079e-015 -6.87808 -8.58224 4.63091 -1.25321 -5.13923 -13.5795 1.05643e-005 -39.9586 0 -0 11.4745 0 8.65485e-006 -32.7363 0 135.949 -74.6135 134.904 2.3106e-006 -11.385 -7.56517 -0 -2.22639e-014 -0 6.18079 -8.58223 4.6309 4.02861 -10.6574 14.9587 -1.0381e-005 -39.2652 0 -0 15.881 0 -0.00334357 -31.3814 0 -108.349 -73.9645 -107.681 -2.72415e-008 -9.94555 -8.16007 -0 -1.90833e-014 -0 
-77.3165 94.0043 25.5882 -8.01735 -2.18748 90.6623 0 0 0 2.67453 -11.1024 -0.967111 -0.0146535 10.7314 1.20016 -1.19156 -3.63903 -1.40564 -0.0615349 10.8421 0.200216 -2.9083 2.32263 -0.652551 -0.0803938 10.955 -0.362586 -11.0406 -5.07467 -11.6966 0.744525 13.1821 -0.716092 1.88185 4.52101 40.7785 -0.714609 12.8109 -2.75709 153.654 5.93533 117.56 -0.0803938 10.955 -0.362586 -2.38542e-015 0 -2.1419e-014 21.0494 8.71366 -1.80014 -3.42401 8.04766 -161.951 1.08638e-009 -27.9395 6.27219e-010 -0 20.4297 0 6.05876e-010 -15.5821 3.49801e-010 9.23114e-015 -6.65812e-015 -161.603 -1.45919e-025 -7.79103 -3.4981e-010 3.60465 -33.6345 0 -1.65336e-025 -4.76355 -2.13835e-010 0 7.12502 -0 -1.45919e-025 -7.79103 -3.4981e-010 -11.5254 -6.82675 2.60334e-015 -0.0803938 10.955 -0.362586 -2.38542e-015 0 -2.1419e-014 -22.6442 7.32563 -0.641706 10.1083 4.77412 149.964 -9.50233e-010 -24.4394 5.48614e-010 -0 16.8526 0 -7.02403e-010 -18.0654 4.0553e-010 3.23519e-015 -5.91053e-015 147.389 1.69176e-025 -9.03275 -4.05569e-010 2.15883 -36.5275 0 1.88163e-025 -5.42111 -2.43422e-010 0 7.12502 -0 1.69176e-025 -9.03275 -4.05569e-010 17.3986 -9.61877 -3.38984e-015 -6.87808 -8.58224 4.63091 -1.25508 -5.14892 -13.5909 1.05643e-005 -39.9586 0 -0 11.4949 0 8.65485e-006 -32.7363 0 135.962 -74.6044 134.915 2.3106e-006 -11.385 -7.56517 -0 -2.22639e-014 -0 6.18079 -8.58223 4.6309 4.03506 -10.662 14.9711 -1.0381e-005 -39.2652 0 -0 15.8774 0 -0.00334357 -31.3814 0 -108.326 -73.941 -107.656 -2.72415e-008 -9.94555 -8.16007 -0 -1.90833e-014 -0 
-77.3142 94.0043 25.5882 -8.03097 -2.20119 90.6784 0 0 0 2.70178 -11.1323 -0.967211 -0.0146535 10.7314 1.20016 -1.20062 -3.63002 -1.40563 -0.0615349 10.8421 0.200216 -2.93418 2.34738 -0.652563 -0.0803938 10.955 -0.362586 -11.0234 -5.07941 -11.6967 0.744525 13.1821 -0.716092 1.89394 4.5216 40.7863 -0.714609 12.8109 -2.75709 153.637 5.91984 117.569 -0.0803938 10.955 -0.362586 -2.38542e-015 0 -2.1419e-014 21.0494 8.71366 -1.80014 -3.40143 8.00887 -161.953 1.08638e-009 -27.9395 6.27219e-010 -0 20.4132 0 6.05876e-010 -15.5821 3.49801e-010 9.23005e-015 -6.65848e-015 -161.613 -1.45919e-025 -7.79103 -3.4981e-010 3.57926 -33.646 0 -1.65336e-025 -4.76355 -2.13835e-010 0 7.12502 -0 -1.45919e-025 -7.79103 -3.4981e-010 -11.5512 -6.83788 2.60681e-015 -0.0803938 10.955 -0.362586 -2.38542e-015 0 -2.1419e-014 -22.6442 7.32563 -0.641706 10.1443 4.74445 149.953 -9.50233e-010 -24.4394 5.48614e-010 -0 16.8537 0 -7.02403e-010 -18.0654 4.0553e-010 3.23707e-015 -5.91173e-015 147.407 1.69176e-025 -9.03275 -4.05569e-010 2.15089 -36.5271 0 1.88163e-025 -5.42111 -2.43422e-010 0 7.12502 -0 1.69176e-025 -9.03275 -4.05569e-010 17.3906 -9.61842 -3.38881e-015 -6.87808 -8.58224 4.63091 -1.25715 -5.15896 -13.6029 1.05643e-005 -39.9586 0 -0 11.5166 0 8.65485e-006 -32.7363 0 135.975 -74.5949 134.927 2.3106e-006 -11.385 -7.56517 -0 -2.22639e-014 -0 6.18079 -8.58223 4.6309 4.04189 -10.6663 14.9843 -1.0381e-005 -39.2652 0 -0 15.8728 0 -0.00334357 -31.3814 0 -108.297 -73.9158 -107.626 -2.72415e-008 -9.94555 -8.16007 -0 -1.90833e-014 -0 
-77.3123 94.0043 25.591 -8.0347 -2.1995 90.6929 0 0 0 2.7105 -11.1371 -0.964396 -0.0146535 10.7314 1.20016 -1.20267 -3.63314 -1.40268 -0.0615349 10.8421 0.200216 -2.94081 2.34668 -0.652562 -0.0803938 10.955 -0.362586 -11.0293 -5.05678 -11.6958 0.744525 13.1821 -0.716092 1.89386 4.52489 40.7818 -0.714609 12.8109 -2.75709 153.637 5.90837 117.584 -0.0803938 10.955 -0.362586 -2.38542e-015 0 -2.1419e-014 21.0494 8.71366 -1.80014 -3.38365 7.97698 -161.951 1.08638e-009 -27.9395 6.27219e-010 -0 20.3986 0 6.05876e-010 -15.5821 3.49801e-010 9.22893e-015 -6.65885e-015 -161.622 -1.45919e-025 -7.79103 -3.4981e-010 3.55768 -33.6545 0 -1.65336e-025 -4.76355 -2.13835e-010 0 7.12502 -0 -1.45919e-025 -7.79103 -3.4981e-010 -11.573 -6.84608 2.60975e-015 -0.0803938 10.955 -0.362586 -2.38542e-015 0 -2.1419e-014 -22.6442 7.32563 -0.641706 10.1764 4.71944 149.936 -9.50233e-010 -24.4394 5.48614e-010 -0 16.8527 0 -7.02403e-010 -18.0654 4.0553e-010 3.2392e-015 -5.91309e-015 147.428 1.69176e-025 -9.03275 -4.05569e-010 2.14428 -36.5271 0 1.88163e-025 -5.42111 -2.43422e-010 0 7.12502 -0 1.69176e-025 -9.03275 -4.05569e-010 17.3839 -9.61835 -3.38795e-015 -6.87808 -8.58224 4.63091 -1.25884 -5.16831 -13.6136 1.05643e-005 -39.9586 0 -0 11.5356 0 8.65485e-006 -32.7363 0 135.987 -74.5862 134.938 2.3106e-006 -11.385 -7.56517 -0 -2.22639e-014 -0 6.18079 -8.58223 4.6309 4.04795 -10.6712 14.996 -1.0381e-005 -39.2652 0 -0 15.8702 0 -0.00334357 -31.3814 0 -108.278 -73.8941 -107.606 -2.72415e-008 -9.94555 -8.16007 -0 -1.90833e-014 -0 
